# xmcd CD database file
#
# Track frame offsets:
#	150
#	11277
#	27655
#	35735
#	46777
#	57042
#	69542
#	81377
#	91302
#	100437
#	112700
#	125545
#
# Disc length: 1846 seconds
#
# Revision: 3
# Processed by: cddbd v1.4PL0 Copyright (c) Steve Scherf et al.
# Submitted via: CDex 1.50
#
DISCID=9607340c
DTITLE=Zillertaler Schürzenjäger - Unsere volkstümlichen Lieblinge
DYEAR=1900
DGENRE=National Folk
TTITLE0=Mei Herzliebster Schatz
TTITLE1=Jodelgruss vom Penkenjoch
TTITLE2=Zillertaler Harfenländler
TTITLE3=Am Morgen wenn die Sonne lacht
TTITLE4=Schürzenjäger Ländler
TTITLE5=Schneewalzer
TTITLE6=Mayrhofen Zillertal
TTITLE7=Allweil lustig, frisch und munter
TTITLE8=Floit'n Polka
TTITLE9=Auf der Alm, da ist's ja gemütlich
TTITLE10=Schürzenjäger Polka
TTITLE11=Mein Hintertux
EXTD=
EXTT0=
EXTT1=
EXTT2=
EXTT3=
EXTT4=
EXTT5=
EXTT6=
EXTT7=
EXTT8=
EXTT9=
EXTT10=
EXTT11=
PLAYORDER=
